<svg width="136" height="92" viewBox="0 0 136 92" fill="none" xmlns="http://www.w3.org/2000/svg">
<path d="M73.0976 16.5284V71.3333H65.2996L62.6585 40.6461L65.2996 16.5284H73.0976Z" fill="#FFB555"/>
<path d="M65.2996 16.5284V71.3333H57.439V32.187H47V16.5284H65.2996Z" fill="#F155FF"/>
<path d="M118.333 0V11.335L110.911 20.8781H107.894L105.66 10.439L107.894 0H118.333Z" fill="#DF6666"/>
<path d="M107.894 0V20.8781H104.877L97.4553 11.335V0H107.894Z" fill="#E69768"/>
<path d="M107.894 28.7074L111.249 20.8146L107.894 15.6586C92.5455 15.6586 80.0569 28.1471 80.0569 43.496C80.0569 58.8448 92.5455 71.3334 107.894 71.3334L111.249 64.8812L107.894 58.2846C99.7275 58.2846 93.1057 51.6628 93.1057 43.496C93.1057 35.3292 99.7275 28.7074 107.894 28.7074Z" fill="#BE55FF"/>
<path d="M135.732 43.496C135.732 58.8448 123.243 71.3334 107.894 71.3334V58.2846C116.061 58.2846 122.683 51.6628 122.683 43.496C122.683 35.3292 116.061 28.7074 107.894 28.7074V15.6586C123.243 15.6586 135.732 28.1471 135.732 43.496Z" fill="#55CCFF"/>
<path d="M20.6543 60.1836H12.4277V83H9.07031V60.1836H0.861328V57.4062H20.6543V60.1836ZM38.918 71.1699H27.8262V80.2402H40.7109V83H24.4512V57.4062H40.5352V60.1836H27.8262V68.4102H38.918V71.1699ZM59.0449 76.3203H48.3223L45.9141 83H42.4336L52.207 57.4062H55.1602L64.9512 83H61.4883L59.0449 76.3203ZM49.3418 73.543H58.043L53.6836 61.5723L49.3418 73.543ZM72.7559 57.4062L81.123 78.2891L89.4902 57.4062H93.8672V83H90.4922V73.0332L90.8086 62.2754L82.4062 83H79.8223L71.4375 62.3281L71.7715 73.0332V83H68.3965V57.4062H72.7559Z" fill="#00FFF0"/>
</svg>
