<svg id="Capa_1" enable-background="new 0 0 512 512" height="512" viewBox="0 0 512 512" width="512" xmlns="http://www.w3.org/2000/svg"><g><path d="m438.319 0h-364.638c-40.628 0-73.681 33.053-73.681 73.681v364.638c0 40.628 33.053 73.681 73.681 73.681h364.638c40.628 0 73.681-33.053 73.681-73.681v-364.638c0-40.628-33.053-73.681-73.681-73.681zm53.642 438.319c0 29.578-24.064 53.642-53.642 53.642h-364.638c-29.578 0-53.642-24.064-53.642-53.642v-364.638c0-29.578 24.064-53.642 53.642-53.642h364.638c29.578 0 53.642 24.064 53.642 53.642z"/><g><circle cx="69.668" cy="256" r="10"/><path d="m413.573 152.547h-248.806c-18.058 0-32.749 14.691-32.749 32.749v20.704h-62.35c-5.523 0-10 4.478-10 10s4.477 10 10 10h62.349v20h-17.035c-5.523 0-10 4.478-10 10s4.477 10 10 10h17.035v20h-62.349c-5.523 0-10 4.478-10 10s4.477 10 10 10h62.349v20.704c0 18.058 14.691 32.749 32.749 32.749h248.806c18.058 0 32.749-14.691 32.749-32.749v-141.408c.001-18.058-14.691-32.749-32.748-32.749zm-261.555 34.284 85.575 63.709-85.575 75.004zm137.151 77.173-122.846-91.457h245.693zm-35.169-1.249 29.198 21.737c1.772 1.319 3.872 1.979 5.972 1.979s4.2-.659 5.972-1.979l29.198-21.737 87.507 76.698h-245.355zm86.746-12.215 85.576-63.709v138.715z"/></g></g></svg>