<?xml version="1.0" encoding="iso-8859-1"?>
<!-- Generator: Adobe Illustrator 19.0.0, SVG Export Plug-In . SVG Version: 6.00 Build 0)  -->
<svg version="1.1" id="Capa_1" xmlns="http://www.w3.org/2000/svg" xmlns:xlink="http://www.w3.org/1999/xlink" x="0px" y="0px"
	 viewBox="0 0 512 512" style="enable-background:new 0 0 512 512;" xml:space="preserve">
<path style="fill:#7984EA;" d="M464.766,324.612c-3.43,10.449-7.669,20.648-12.639,30.486l28.287,38.515l-86.8,86.8l-38.515-28.287
	c-9.839,4.969-20.038,9.209-30.486,12.639L317.373,512H194.627l-7.239-47.234c-10.449-3.43-20.648-7.669-30.486-12.639
	l-38.515,28.287l-86.8-86.8l28.287-38.515c-4.969-9.839-9.209-20.038-12.639-30.486L0,317.373V194.627l47.234-7.239
	c3.43-10.449,7.669-20.648,12.639-30.486l-28.287-38.515l86.8-86.8l38.515,28.287c9.839-4.969,20.038-9.209,30.486-12.639L194.627,0
	h122.746l7.239,47.234c10.449,3.43,20.648,7.669,30.486,12.639l38.515-28.287l86.8,86.8l-28.287,38.515
	c4.969,9.839,9.209,20.038,12.639,30.486L512,194.627v122.746L464.766,324.612z"/>
<path style="fill:#4B5BE5;" d="M464.766,324.612c-3.43,10.449-7.669,20.648-12.639,30.486l28.287,38.515l-86.8,86.8l-38.515-28.287
	c-9.839,4.969-20.038,9.209-30.486,12.639L317.373,512H256.02V0h61.353l7.239,47.234c10.449,3.43,20.648,7.669,30.486,12.639
	l38.515-28.287l86.8,86.8l-28.287,38.515c4.969,9.839,9.209,20.038,12.639,30.486L512,194.627v122.746L464.766,324.612z"/>
<path style="fill:#E0E3FA;" d="M418.281,256c0,57.293-29.837,107.737-74.791,136.614c-1.2,0.78-2.4,1.53-3.62,2.27
	c-24.477,14.848-53.194,23.397-83.85,23.397c-0.01,0-0.01,0-0.02,0c-32.196,0-62.233-9.419-87.49-25.667
	c-1.22-0.78-2.43-1.58-3.62-2.39C121.966,360.998,93.719,311.733,93.719,256c0-89.48,72.801-162.281,162.281-162.281
	c0.01,0,0.01,0,0.02,0C345.49,93.729,418.281,166.53,418.281,256z"/>
<path style="fill:#C4C8F6;" d="M418.281,256c0,57.293-29.837,107.737-74.791,136.614c-1.2,0.78-2.4,1.53-3.62,2.27
	c-24.477,14.848-53.194,23.397-83.85,23.397V93.719C345.49,93.729,418.281,166.53,418.281,256z"/>
<path style="fill:#FF623F;" d="M343.49,331.501v61.113c-1.2,0.78-2.4,1.53-3.62,2.27c-24.477,14.848-53.194,23.397-83.85,23.397
	c-0.01,0-0.01,0-0.02,0c-32.196,0-62.233-9.419-87.49-25.667v-61.113c0-34.056,27.617-61.653,61.683-61.653h51.614
	C315.873,269.848,343.49,297.445,343.49,331.501z"/>
<path style="fill:#E70020;" d="M343.49,331.501v61.113c-1.2,0.78-2.4,1.53-3.62,2.27c-24.477,14.848-53.194,23.397-83.85,23.397
	V269.848h25.787C315.873,269.848,343.49,297.445,343.49,331.501z"/>
<path style="fill:#FFC373;" d="M309.994,226.483c0,29.807-24.167,53.984-53.974,53.994c-0.01,0-0.01,0-0.02,0
	c-29.817,0-53.994-24.177-53.994-53.994c0-29.826,24.177-53.994,53.994-53.994c0.01,0,0.01,0,0.02,0
	C285.826,172.5,309.994,196.667,309.994,226.483z"/>
<path style="fill:#FFA920;" d="M309.994,226.483c0,29.807-24.167,53.984-53.974,53.994V172.49
	C285.826,172.5,309.994,196.667,309.994,226.483z"/>
<g>
</g>
<g>
</g>
<g>
</g>
<g>
</g>
<g>
</g>
<g>
</g>
<g>
</g>
<g>
</g>
<g>
</g>
<g>
</g>
<g>
</g>
<g>
</g>
<g>
</g>
<g>
</g>
<g>
</g>
</svg>
